<svg width="15" height="15" viewBox="0 0 15 15" fill="none" xmlns="http://www.w3.org/2000/svg">
<g clip-path="url(#clip0_189_944)">
<path d="M7.5 0C6.01664 0 4.5666 0.439867 3.33323 1.26398C2.09986 2.08809 1.13856 3.25943 0.570907 4.62987C0.00324965 6.00032 -0.145275 7.50832 0.144114 8.96318C0.433503 10.418 1.14781 11.7544 2.1967 12.8033C3.2456 13.8522 4.58197 14.5665 6.03683 14.8559C7.49168 15.1453 8.99968 14.9968 10.3701 14.4291C11.7406 13.8614 12.9119 12.9001 13.736 11.6668C14.5601 10.4334 15 8.98336 15 7.5C14.9979 5.51154 14.207 3.60513 12.8009 2.19907C11.3949 0.793018 9.48847 0.00215068 7.5 0ZM7.5 13.75C6.26387 13.75 5.0555 13.3834 4.02769 12.6967C2.99988 12.0099 2.1988 11.0338 1.72576 9.89177C1.25271 8.74973 1.12894 7.49307 1.3701 6.28069C1.61125 5.06831 2.20651 3.95466 3.08059 3.08058C3.95466 2.2065 5.06831 1.61125 6.28069 1.37009C7.49307 1.12893 8.74974 1.25271 9.89178 1.72575C11.0338 2.1988 12.0099 2.99988 12.6967 4.02769C13.3834 5.05549 13.75 6.26387 13.75 7.5C13.7482 9.15705 13.0891 10.7457 11.9174 11.9174C10.7457 13.0891 9.15705 13.7482 7.5 13.75Z" fill="white"/>
<path d="M7.50003 3.75C7.33427 3.75 7.1753 3.81585 7.05809 3.93306C6.94088 4.05027 6.87503 4.20924 6.87503 4.375V7.07813L4.76815 8.39813C4.62726 8.48614 4.5271 8.62653 4.48971 8.7884C4.45232 8.95026 4.48076 9.12035 4.56878 9.26125C4.6568 9.40215 4.79718 9.50231 4.95905 9.5397C5.12092 9.57709 5.29101 9.54864 5.4319 9.46063L7.8319 7.96063C7.92258 7.90381 7.99715 7.82467 8.04848 7.73077C8.0998 7.63688 8.12616 7.53138 8.12503 7.42438V4.375C8.12503 4.20924 8.05918 4.05027 7.94197 3.93306C7.82476 3.81585 7.66579 3.75 7.50003 3.75Z" fill="white"/>
</g>
<defs>
<clipPath id="clip0_189_944">
<rect width="15" height="15" fill="white"/>
</clipPath>
</defs>
</svg>
