<svg width="15" height="15" viewBox="0 0 15 15" fill="none" xmlns="http://www.w3.org/2000/svg">
<g clip-path="url(#clip0_38_1673)">
<path d="M13.75 2.49999H10.625V1.24999C10.625 0.918472 10.4933 0.600529 10.2589 0.366109C10.0245 0.131688 9.70652 -7.62939e-06 9.375 -7.62939e-06L5.625 -7.62939e-06C5.29348 -7.62939e-06 4.97554 0.131688 4.74112 0.366109C4.5067 0.600529 4.375 0.918472 4.375 1.24999V2.49999H1.25V3.74999H2.5V13.125C2.5 13.6223 2.69754 14.0992 3.04918 14.4508C3.40081 14.8024 3.87772 15 4.375 15H10.625C11.1223 15 11.5992 14.8024 11.9508 14.4508C12.3025 14.0992 12.5 13.6223 12.5 13.125V3.74999H13.75V2.49999ZM5.625 1.24999H9.375V2.49999H5.625V1.24999ZM11.25 13.125C11.25 13.2908 11.1842 13.4497 11.0669 13.5669C10.9497 13.6841 10.7908 13.75 10.625 13.75H4.375C4.20924 13.75 4.05027 13.6841 3.93306 13.5669C3.81585 13.4497 3.75 13.2908 3.75 13.125V3.74999H11.25V13.125Z" fill="#5F5B5B"/>
<path d="M6.875 6.25H5.625V11.25H6.875V6.25Z" fill="#5F5B5B"/>
<path d="M9.375 6.25H8.125V11.25H9.375V6.25Z" fill="#5F5B5B"/>
</g>
<defs>
<clipPath id="clip0_38_1673">
<rect width="15" height="15" fill="white"/>
</clipPath>
</defs>
</svg>
