<svg width="15" height="15" viewBox="0 0 15 15" fill="none" xmlns="http://www.w3.org/2000/svg">
<g clip-path="url(#clip0_24_771)">
<path d="M10.9376 1.19824C10.2338 1.20919 9.54538 1.40565 8.94182 1.76779C8.33826 2.12992 7.84095 2.64491 7.5001 3.26074C7.15925 2.64491 6.66193 2.12992 6.05837 1.76779C5.45481 1.40565 4.76638 1.20919 4.0626 1.19824C2.94068 1.24699 1.88366 1.73778 1.12246 2.56339C0.361258 3.389 -0.0422481 4.48232 9.60021e-05 5.60449C9.60021e-05 8.44637 2.99135 11.5501 5.5001 13.6545C6.06023 14.1252 6.76844 14.3833 7.5001 14.3833C8.23175 14.3833 8.93996 14.1252 9.5001 13.6545C12.0088 11.5501 15.0001 8.44637 15.0001 5.60449C15.0424 4.48232 14.6389 3.389 13.8777 2.56339C13.1165 1.73778 12.0595 1.24699 10.9376 1.19824ZM8.69697 12.6982C8.36196 12.9804 7.93807 13.1351 7.5001 13.1351C7.06213 13.1351 6.63823 12.9804 6.30322 12.6982C3.09197 10.0039 1.2501 7.41887 1.2501 5.60449C1.20737 4.81369 1.47907 4.03807 2.00595 3.4468C2.53282 2.85554 3.27212 2.49659 4.0626 2.44824C4.85308 2.49659 5.59237 2.85554 6.11924 3.4468C6.64612 4.03807 6.91782 4.81369 6.8751 5.60449C6.8751 5.77025 6.94094 5.92922 7.05815 6.04643C7.17536 6.16364 7.33434 6.22949 7.5001 6.22949C7.66586 6.22949 7.82483 6.16364 7.94204 6.04643C8.05925 5.92922 8.1251 5.77025 8.1251 5.60449C8.08237 4.81369 8.35407 4.03807 8.88095 3.4468C9.40782 2.85554 10.1471 2.49659 10.9376 2.44824C11.7281 2.49659 12.4674 2.85554 12.9942 3.4468C13.5211 4.03807 13.7928 4.81369 13.7501 5.60449C13.7501 7.41887 11.9082 10.0039 8.69697 12.6957V12.6982Z" fill="black"/>
</g>
<defs>
<clipPath id="clip0_24_771">
<rect width="15" height="15" fill="white"/>
</clipPath>
</defs>
</svg>
