<svg width="15" height="15" viewBox="0 0 15 15" fill="none" xmlns="http://www.w3.org/2000/svg">
<g clip-path="url(#clip0_24_778)">
<path d="M7.5 10C7.00555 10 6.5222 9.85338 6.11107 9.57868C5.69995 9.30397 5.37952 8.91353 5.1903 8.45671C5.00108 7.99989 4.95157 7.49723 5.04804 7.01228C5.1445 6.52732 5.3826 6.08187 5.73223 5.73223C6.08186 5.3826 6.52732 5.1445 7.01227 5.04804C7.49723 4.95157 7.99989 5.00108 8.45671 5.1903C8.91352 5.37952 9.30397 5.69995 9.57867 6.11108C9.85338 6.5222 10 7.00555 10 7.5C10 8.16304 9.73661 8.79893 9.26777 9.26777C8.79893 9.73661 8.16304 10 7.5 10ZM7.5 6.25C7.25277 6.25 7.0111 6.32331 6.80554 6.46066C6.59998 6.59802 6.43976 6.79324 6.34515 7.02165C6.25054 7.25005 6.22579 7.50139 6.27402 7.74386C6.32225 7.98634 6.4413 8.20907 6.61612 8.38388C6.79093 8.5587 7.01366 8.67775 7.25614 8.72598C7.49861 8.77421 7.74995 8.74946 7.97835 8.65485C8.20676 8.56024 8.40199 8.40003 8.53934 8.19446C8.67669 7.9889 8.75 7.74723 8.75 7.5C8.75 7.16848 8.6183 6.85054 8.38388 6.61612C8.14946 6.3817 7.83152 6.25 7.5 6.25ZM11.25 14.375C11.25 13.3804 10.8549 12.4266 10.1517 11.7234C9.44839 11.0201 8.49456 10.625 7.5 10.625C6.50544 10.625 5.55161 11.0201 4.84835 11.7234C4.14509 12.4266 3.75 13.3804 3.75 14.375C3.75 14.5408 3.81585 14.6997 3.93306 14.8169C4.05027 14.9342 4.20924 15 4.375 15C4.54076 15 4.69973 14.9342 4.81694 14.8169C4.93415 14.6997 5 14.5408 5 14.375C5 13.712 5.26339 13.0761 5.73223 12.6072C6.20107 12.1384 6.83696 11.875 7.5 11.875C8.16304 11.875 8.79893 12.1384 9.26777 12.6072C9.73661 13.0761 10 13.712 10 14.375C10 14.5408 10.0658 14.6997 10.1831 14.8169C10.3003 14.9342 10.4592 15 10.625 15C10.7908 15 10.9497 14.9342 11.0669 14.8169C11.1842 14.6997 11.25 14.5408 11.25 14.375ZM11.25 5C10.7555 5 10.2722 4.85338 9.86107 4.57868C9.44995 4.30397 9.12952 3.91352 8.9403 3.45671C8.75108 2.99989 8.70157 2.49723 8.79804 2.01228C8.8945 1.52732 9.1326 1.08187 9.48223 0.732234C9.83186 0.382603 10.2773 0.144501 10.7623 0.0480379C11.2472 -0.0484251 11.7499 0.0010832 12.2067 0.190302C12.6635 0.379521 13.054 0.699953 13.3287 1.11108C13.6034 1.5222 13.75 2.00555 13.75 2.5C13.75 3.16304 13.4866 3.79893 13.0178 4.26777C12.5489 4.73661 11.913 5 11.25 5ZM11.25 1.25C11.0028 1.25 10.7611 1.32331 10.5555 1.46066C10.35 1.59802 10.1898 1.79324 10.0951 2.02165C10.0005 2.25005 9.97579 2.50139 10.024 2.74386C10.0722 2.98634 10.1913 3.20907 10.3661 3.38388C10.5409 3.5587 10.7637 3.67775 11.0061 3.72598C11.2486 3.77421 11.4999 3.74946 11.7284 3.65485C11.9568 3.56024 12.152 3.40003 12.2893 3.19446C12.4267 2.9889 12.5 2.74723 12.5 2.5C12.5 2.16848 12.3683 1.85054 12.1339 1.61612C11.8995 1.3817 11.5815 1.25 11.25 1.25ZM15 9.375C14.999 8.38074 14.6036 7.42749 13.9006 6.72445C13.1975 6.0214 12.2443 5.62599 11.25 5.625C11.0842 5.625 10.9253 5.69085 10.8081 5.80806C10.6908 5.92527 10.625 6.08424 10.625 6.25C10.625 6.41576 10.6908 6.57473 10.8081 6.69194C10.9253 6.80915 11.0842 6.875 11.25 6.875C11.913 6.875 12.5489 7.13839 13.0178 7.60723C13.4866 8.07607 13.75 8.71196 13.75 9.375C13.75 9.54076 13.8158 9.69973 13.9331 9.81694C14.0503 9.93415 14.2092 10 14.375 10C14.5408 10 14.6997 9.93415 14.8169 9.81694C14.9342 9.69973 15 9.54076 15 9.375ZM3.75 5C3.25555 5 2.7722 4.85338 2.36107 4.57868C1.94995 4.30397 1.62952 3.91352 1.4403 3.45671C1.25108 2.99989 1.20157 2.49723 1.29804 2.01228C1.3945 1.52732 1.6326 1.08187 1.98223 0.732234C2.33186 0.382603 2.77732 0.144501 3.26227 0.0480379C3.74723 -0.0484251 4.24989 0.0010832 4.70671 0.190302C5.16352 0.379521 5.55397 0.699953 5.82867 1.11108C6.10338 1.5222 6.25 2.00555 6.25 2.5C6.25 3.16304 5.98661 3.79893 5.51777 4.26777C5.04893 4.73661 4.41304 5 3.75 5ZM3.75 1.25C3.50277 1.25 3.2611 1.32331 3.05554 1.46066C2.84998 1.59802 2.68976 1.79324 2.59515 2.02165C2.50054 2.25005 2.47579 2.50139 2.52402 2.74386C2.57225 2.98634 2.6913 3.20907 2.86612 3.38388C3.04093 3.5587 3.26366 3.67775 3.50614 3.72598C3.74861 3.77421 3.99995 3.74946 4.22835 3.65485C4.45676 3.56024 4.65199 3.40003 4.78934 3.19446C4.92669 2.9889 5 2.74723 5 2.5C5 2.16848 4.8683 1.85054 4.63388 1.61612C4.39946 1.3817 4.08152 1.25 3.75 1.25ZM1.25 9.375C1.25 8.71196 1.51339 8.07607 1.98223 7.60723C2.45107 7.13839 3.08696 6.875 3.75 6.875C3.91576 6.875 4.07473 6.80915 4.19194 6.69194C4.30915 6.57473 4.375 6.41576 4.375 6.25C4.375 6.08424 4.30915 5.92527 4.19194 5.80806C4.07473 5.69085 3.91576 5.625 3.75 5.625C2.75574 5.62599 1.80249 6.0214 1.09945 6.72445C0.3964 7.42749 0.000992769 8.38074 0 9.375C0 9.54076 0.065848 9.69973 0.183058 9.81694C0.300269 9.93415 0.45924 10 0.625 10C0.79076 10 0.949732 9.93415 1.06694 9.81694C1.18415 9.69973 1.25 9.54076 1.25 9.375Z" fill="black"/>
</g>
<defs>
<clipPath id="clip0_24_778">
<rect width="15" height="15" fill="white"/>
</clipPath>
</defs>
</svg>
