<svg width="18" height="18" viewBox="0 0 30 30" fill="none" xmlns="http://www.w3.org/2000/svg">
<g clip-path="url(#clip0_77_79)">
<path d="M15 10C14.0111 10 13.0444 10.2932 12.2222 10.8427C11.3999 11.3921 10.759 12.173 10.3806 13.0866C10.0022 14.0002 9.90315 15.0055 10.0961 15.9755C10.289 16.9454 10.7652 17.8363 11.4645 18.5355C12.1637 19.2348 13.0546 19.711 14.0246 19.9039C14.9945 20.0969 15.9998 19.9978 16.9134 19.6194C17.8271 19.241 18.6079 18.6001 19.1574 17.7779C19.7068 16.9556 20 15.9889 20 15C20 13.6739 19.4732 12.4021 18.5355 11.4645C17.5979 10.5268 16.3261 10 15 10ZM15 17.5C14.5055 17.5 14.0222 17.3534 13.6111 17.0787C13.2 16.804 12.8795 16.4135 12.6903 15.9567C12.5011 15.4999 12.4516 14.9972 12.548 14.5123C12.6445 14.0273 12.8826 13.5819 13.2322 13.2322C13.5819 12.8826 14.0273 12.6445 14.5123 12.548C14.9972 12.4516 15.4999 12.5011 15.9567 12.6903C16.4135 12.8795 16.804 13.2 17.0787 13.6111C17.3534 14.0222 17.5 14.5055 17.5 15C17.5 15.663 17.2366 16.2989 16.7678 16.7678C16.2989 17.2366 15.663 17.5 15 17.5Z" fill="#000B70"/>
<path d="M26.6173 17.375L26.0623 17.055C26.3121 15.6956 26.3121 14.3019 26.0623 12.9425L26.6173 12.6225C27.044 12.3763 27.4182 12.0484 27.7182 11.6576C28.0183 11.2668 28.2385 10.8207 28.3662 10.3448C28.4939 9.86887 28.5265 9.37248 28.4624 8.88395C28.3982 8.39541 28.2385 7.9243 27.9923 7.4975C27.746 7.0707 27.4181 6.69659 27.0273 6.3965C26.6365 6.09642 26.1904 5.87626 25.7145 5.74858C25.2386 5.6209 24.7422 5.5882 24.2537 5.65236C23.7652 5.71652 23.294 5.87627 22.8673 6.1225L22.311 6.44375C21.2604 5.54615 20.0531 4.85031 18.7498 4.39125V3.75C18.7498 2.75544 18.3547 1.80161 17.6514 1.09835C16.9481 0.395088 15.9943 0 14.9998 0C14.0052 0 13.0514 0.395088 12.3481 1.09835C11.6448 1.80161 11.2497 2.75544 11.2497 3.75V4.39125C9.94648 4.85196 8.73956 5.5495 7.68975 6.44875L7.131 6.125C6.26905 5.62772 5.24485 5.49322 4.28373 5.75108C3.3226 6.00894 2.50328 6.63805 2.006 7.5C1.50872 8.36195 1.37421 9.38615 1.63208 10.3473C1.88994 11.3084 2.51904 12.1277 3.381 12.625L3.936 12.945C3.68614 14.3044 3.68614 15.6981 3.936 17.0575L3.381 17.3775C2.51904 17.8748 1.88994 18.6941 1.63208 19.6552C1.37421 20.6164 1.50872 21.6405 2.006 22.5025C2.50328 23.3645 3.3226 23.9936 4.28373 24.2514C5.24485 24.5093 6.26905 24.3748 7.131 23.8775L7.68725 23.5562C8.73821 24.454 9.94598 25.1498 11.2497 25.6087V26.25C11.2497 27.2446 11.6448 28.1984 12.3481 28.9017C13.0514 29.6049 14.0052 30 14.9998 30C15.9943 30 16.9481 29.6049 17.6514 28.9017C18.3547 28.1984 18.7498 27.2446 18.7498 26.25V25.6087C20.053 25.148 21.2599 24.4505 22.3098 23.5513L22.8685 23.8738C23.7305 24.371 24.7546 24.5055 25.7158 24.2477C26.6769 23.9898 27.4962 23.3607 27.9935 22.4988C28.4908 21.6368 28.6253 20.6126 28.3674 19.6515C28.1096 18.6904 27.4805 17.871 26.6185 17.3738L26.6173 17.375ZM23.4323 12.655C23.8556 14.1888 23.8556 15.8087 23.4323 17.3425C23.3583 17.6095 23.3752 17.8934 23.4802 18.1498C23.5852 18.4061 23.7723 18.6203 24.0123 18.7588L25.3673 19.5413C25.6545 19.707 25.8642 19.9801 25.9501 20.3004C26.036 20.6208 25.9911 20.9621 25.8254 21.2494C25.6596 21.5366 25.3865 21.7463 25.0662 21.8322C24.7459 21.9181 24.4045 21.8733 24.1173 21.7075L22.7598 20.9225C22.5196 20.7834 22.24 20.7282 21.9651 20.7655C21.6901 20.8029 21.4353 20.9307 21.241 21.1287C20.1284 22.2646 18.7267 23.075 17.1873 23.4725C16.9185 23.5416 16.6805 23.6981 16.5105 23.9174C16.3405 24.1367 16.2484 24.4063 16.2485 24.6838V26.25C16.2485 26.5815 16.1168 26.8995 15.8824 27.1339C15.648 27.3683 15.33 27.5 14.9985 27.5C14.667 27.5 14.349 27.3683 14.1146 27.1339C13.8802 26.8995 13.7485 26.5815 13.7485 26.25V24.685C13.7486 24.4076 13.6565 24.1379 13.4865 23.9186C13.3165 23.6994 13.0785 23.5428 12.8097 23.4737C11.2702 23.0746 9.86891 22.2624 8.75725 21.125C8.5629 20.9269 8.30817 20.7991 8.03319 20.7618C7.75822 20.7244 7.47863 20.7797 7.2385 20.9188L5.8835 21.7025C5.74129 21.7859 5.58399 21.8403 5.42066 21.8626C5.25732 21.885 5.09119 21.8748 4.93182 21.8326C4.77244 21.7905 4.62298 21.7172 4.49202 21.6171C4.36107 21.517 4.25122 21.3919 4.16879 21.2492C4.08637 21.1064 4.03299 20.9487 4.01175 20.7853C3.9905 20.6218 4.00179 20.4557 4.04499 20.2966C4.08818 20.1375 4.16241 19.9886 4.26341 19.8583C4.36442 19.728 4.49019 19.619 4.6335 19.5375L5.9885 18.755C6.22844 18.6166 6.41559 18.4024 6.52057 18.146C6.62555 17.8897 6.64241 17.6057 6.5685 17.3388C6.1452 15.8049 6.1452 14.1851 6.5685 12.6513C6.64108 12.3849 6.62342 12.1019 6.51827 11.8466C6.41312 11.5913 6.22639 11.378 5.98725 11.24L4.63225 10.4575C4.34499 10.2917 4.13534 10.0187 4.04942 9.69832C3.96351 9.37798 4.00836 9.03664 4.17412 8.74937C4.33988 8.46211 4.61297 8.25246 4.93331 8.16655C5.25364 8.08063 5.59499 8.12549 5.88225 8.29125L7.23975 9.07625C7.47922 9.21564 7.75822 9.27151 8.03291 9.23509C8.30759 9.19866 8.56239 9.07199 8.75725 8.875C9.86986 7.73918 11.2715 6.92878 12.811 6.53125C13.0805 6.46195 13.3192 6.30469 13.4893 6.08438C13.6593 5.86406 13.751 5.5933 13.7497 5.315V3.75C13.7497 3.41848 13.8814 3.10054 14.1159 2.86612C14.3503 2.6317 14.6682 2.5 14.9998 2.5C15.3313 2.5 15.6492 2.6317 15.8836 2.86612C16.1181 3.10054 16.2498 3.41848 16.2498 3.75V5.315C16.2496 5.59245 16.3418 5.86206 16.5117 6.08135C16.6817 6.30065 16.9198 6.45717 17.1885 6.52625C18.7285 6.92519 20.1302 7.73735 21.2423 8.875C21.4366 9.07308 21.6913 9.20087 21.9663 9.23821C22.2413 9.27555 22.5209 9.22033 22.761 9.08125L24.116 8.2975C24.2582 8.21413 24.4155 8.15971 24.5788 8.13738C24.7422 8.11505 24.9083 8.12524 25.0677 8.16738C25.2271 8.20951 25.3765 8.28276 25.5075 8.38289C25.6384 8.48303 25.7483 8.60808 25.8307 8.75084C25.9131 8.8936 25.9665 9.05126 25.9878 9.21474C26.009 9.37821 25.9977 9.54427 25.9545 9.70337C25.9113 9.86246 25.8371 10.0114 25.7361 10.1417C25.6351 10.272 25.5093 10.381 25.366 10.4625L24.011 11.245C23.7723 11.3834 23.5861 11.5968 23.4814 11.8521C23.3767 12.1074 23.3594 12.3901 23.4323 12.6562V12.655Z" fill="#000B70"/>
</g>
<defs>
<clipPath id="clip0_77_79">
<rect width="30" height="30" fill="white"/>
</clipPath>
</defs>
</svg>
