<svg width="144" height="27" viewBox="0 0 144 27" fill="none" xmlns="http://www.w3.org/2000/svg">
<path d="M143.562 7.99336L135.131 16.7897L134.145 17.2642L128.67 23.1406L128.597 17.8117L137.868 7.99336H143.562ZM129.984 0V26.243H124.984V0H129.984ZM135.824 13.7968L144 26.243H138.343L132.393 16.7167L135.824 13.7968Z" fill="#5E5F7D"/>
<path d="M112.667 7.62837C114.297 7.62837 115.672 7.8717 116.791 8.35836C117.935 8.82068 118.848 9.46551 119.529 10.2928C120.235 11.0958 120.733 11.9961 121.025 12.9938L116.353 14.6727C116.11 13.5778 115.696 12.7504 115.112 12.1908C114.528 11.6311 113.738 11.3513 112.74 11.3513C111.815 11.3513 111.025 11.5703 110.368 12.0083C109.711 12.422 109.212 13.0668 108.871 13.9428C108.53 14.7944 108.36 15.8651 108.36 17.1547C108.36 18.4444 108.53 19.515 108.871 20.3667C109.236 21.2183 109.747 21.851 110.404 22.2646C111.085 22.6783 111.876 22.8851 112.776 22.8851C113.506 22.8851 114.127 22.7634 114.638 22.5201C115.149 22.2525 115.563 21.8753 115.879 21.3886C116.22 20.902 116.451 20.318 116.572 19.6367L121.098 21.0966C120.831 22.1916 120.332 23.1528 119.602 23.9801C118.872 24.8074 117.935 25.4522 116.791 25.9146C115.648 26.3769 114.322 26.608 112.813 26.608C110.939 26.608 109.285 26.2309 107.849 25.4766C106.413 24.7222 105.306 23.6394 104.528 22.2281C103.749 20.8168 103.36 19.1135 103.36 17.1182C103.36 15.1229 103.749 13.4196 104.528 12.0083C105.306 10.597 106.401 9.51417 107.813 8.75985C109.224 8.00553 110.842 7.62837 112.667 7.62837Z" fill="#5E5F7D"/>
<path d="M93.8966 14.5998C93.8966 13.5534 93.5925 12.7383 92.9841 12.1543C92.4001 11.5703 91.6215 11.2783 90.6482 11.2783C89.7479 11.2783 88.957 11.5095 88.2757 11.9718C87.5944 12.4341 87.0956 13.2006 86.7792 14.2713L82.5088 12.9573C82.9225 11.3513 83.8228 10.0617 85.2098 9.08834C86.6211 8.11503 88.5069 7.62837 90.8672 7.62837C92.4731 7.62837 93.8723 7.88387 95.0646 8.39486C96.2569 8.88152 97.1816 9.62367 97.8386 10.6213C98.5199 11.619 98.8605 12.8721 98.8605 14.3808V21.7901C98.8605 22.7148 99.2985 23.1771 100.175 23.1771C100.588 23.1771 100.978 23.1163 101.342 22.9946L101.05 26.0971C100.418 26.4134 99.627 26.5715 98.678 26.5715C97.8264 26.5715 97.0599 26.4255 96.3786 26.1336C95.6972 25.8416 95.1619 25.4036 94.7726 24.8196C94.3833 24.2113 94.1886 23.4569 94.1886 22.5566V22.4106L95.0646 22.2646C94.9186 23.1893 94.5171 23.9801 93.8601 24.6371C93.2031 25.2697 92.4001 25.7564 91.4512 26.0971C90.5265 26.4377 89.5654 26.608 88.5677 26.608C87.3267 26.608 86.2561 26.4255 85.3558 26.0606C84.4554 25.6712 83.762 25.1116 83.2753 24.3816C82.7886 23.6516 82.5453 22.7513 82.5453 21.6806C82.5453 20.318 82.9833 19.2108 83.8593 18.3592C84.7353 17.4832 85.9884 16.887 87.6187 16.5707L94.4806 15.1837L94.4441 18.2862L90.0642 19.1622C89.2369 19.3325 88.6042 19.5637 88.1662 19.8557C87.7526 20.1233 87.5457 20.5735 87.5457 21.2061C87.5457 21.8145 87.7647 22.2768 88.2027 22.5931C88.665 22.9094 89.2125 23.0676 89.8452 23.0676C90.3562 23.0676 90.855 23.0068 91.3417 22.8851C91.8283 22.7634 92.2663 22.5688 92.6556 22.3011C93.045 22.0335 93.3491 21.6685 93.5681 21.2061C93.7871 20.7438 93.8966 20.1842 93.8966 19.5272V14.5998Z" fill="#5E5F7D"/>
<path d="M68.4169 26.243V7.99336H72.7604L73.0888 11.5703C73.5755 10.305 74.2812 9.33167 75.2058 8.65035C76.1548 7.96903 77.3349 7.62837 78.7463 7.62837C79.1599 7.62837 79.5371 7.66487 79.8777 7.73787C80.2184 7.81087 80.4982 7.9082 80.7172 8.02986L80.1332 12.2273C79.8899 12.13 79.5857 12.057 79.2207 12.0083C78.8801 11.9596 78.4299 11.9353 77.8703 11.9353C77.1403 11.9353 76.4346 12.1178 75.7533 12.4828C75.072 12.8234 74.5123 13.3588 74.0743 14.0888C73.6363 14.7944 73.4173 15.6947 73.4173 16.7897V26.243H68.4169Z" fill="#5E5F7D"/>
<path d="M67.2002 2.15346V6.20489H59.1338V26.243H54.0969V6.20489H45.994V2.15346H67.2002Z" fill="#5E5F7D"/>
<path d="M27.6403 26.243V7.99336H32.1297L32.4217 13.4683L31.8012 12.8843C32.0932 11.692 32.5555 10.7065 33.1882 9.92783C33.8208 9.14918 34.5873 8.57735 35.4877 8.21236C36.4123 7.82303 37.4221 7.62837 38.5171 7.62837C39.7824 7.62837 40.9017 7.8717 41.875 8.35836C42.8727 8.84502 43.6513 9.58717 44.211 10.5848C44.795 11.5581 45.087 12.7869 45.087 14.2713V26.243H40.0866V15.6947C40.0866 14.1374 39.7824 13.0668 39.1741 12.4828C38.5658 11.8745 37.7749 11.5703 36.8016 11.5703C36.1203 11.5703 35.4512 11.7406 34.7942 12.0813C34.1615 12.3976 33.6384 12.9208 33.2247 13.6508C32.8354 14.3808 32.6407 15.3541 32.6407 16.5707V26.243H27.6403Z" fill="#000B70"/>
<path d="M11.6068 1.78847C13.9914 1.78847 16.0476 2.2873 17.7752 3.28495C19.5028 4.2826 20.829 5.70607 21.7536 7.55537C22.7026 9.40467 23.1771 11.619 23.1771 14.1983C23.1771 16.7775 22.7026 18.9918 21.7536 20.8411C20.829 22.6904 19.5028 24.1139 17.7752 25.1116C16.0476 26.1092 13.9914 26.608 11.6068 26.608C9.22217 26.608 7.15388 26.1092 5.40191 25.1116C3.67427 24.1139 2.33596 22.6904 1.38698 20.8411C0.462325 18.9918 0 16.7775 0 14.1983C0 11.619 0.462325 9.40467 1.38698 7.55537C2.33596 5.70607 3.67427 4.2826 5.40191 3.28495C7.15388 2.2873 9.22217 1.78847 11.6068 1.78847ZM11.6068 5.9129C10.2442 5.9129 9.08834 6.22923 8.13936 6.86188C7.19038 7.49454 6.46039 8.43136 5.9494 9.67233C5.46274 10.889 5.21941 12.3976 5.21941 14.1983C5.21941 15.9746 5.46274 17.4832 5.9494 18.7242C6.46039 19.9652 7.19038 20.902 8.13936 21.5346C9.08834 22.1673 10.2442 22.4836 11.6068 22.4836C12.9451 22.4836 14.0888 22.1673 15.0377 21.5346C15.9867 20.902 16.7045 19.9652 17.1912 18.7242C17.7022 17.4832 17.9577 15.9746 17.9577 14.1983C17.9577 12.3976 17.7022 10.889 17.1912 9.67233C16.7045 8.43136 15.9867 7.49454 15.0377 6.86188C14.0888 6.22923 12.9451 5.9129 11.6068 5.9129Z" fill="#000B70"/>
</svg>
