<svg width="14" height="14" viewBox="0 0 15 15" fill="none" xmlns="http://www.w3.org/2000/svg">
<g clip-path="url(#clip0_392_463)">
<path d="M11.535 0.553219L3.91501 8.17322C3.62398 8.46268 3.39325 8.807 3.23619 9.18625C3.07913 9.56549 2.99885 9.97212 3.00001 10.3826V11.222C3.00001 11.3877 3.06586 11.5467 3.18307 11.6639C3.30028 11.7811 3.45925 11.847 3.62501 11.847H4.46439C4.87486 11.8481 5.28149 11.7679 5.66074 11.6108C6.03998 11.4537 6.3843 11.223 6.67376 10.932L14.2938 3.31197C14.659 2.94583 14.8641 2.44977 14.8641 1.93259C14.8641 1.41542 14.659 0.919362 14.2938 0.553219C13.9223 0.198153 13.4282 0 12.9144 0C12.4005 0 11.9065 0.198153 11.535 0.553219ZM13.41 2.42822L5.79001 10.0482C5.43759 10.3985 4.96127 10.5957 4.46439 10.597H4.25001V10.3826C4.25131 9.88571 4.44849 9.40939 4.79876 9.05697L12.4188 1.43697C12.5523 1.30944 12.7298 1.23828 12.9144 1.23828C13.099 1.23828 13.2765 1.30944 13.41 1.43697C13.5412 1.56854 13.6149 1.74678 13.6149 1.93259C13.6149 2.11841 13.5412 2.29665 13.41 2.42822Z" fill="#5F5B5B"/>
<path d="M14.375 5.61188C14.2092 5.61188 14.0503 5.67772 13.9331 5.79493C13.8158 5.91214 13.75 6.07112 13.75 6.23688V9.375H11.25C10.7527 9.375 10.2758 9.57255 9.92418 9.92418C9.57255 10.2758 9.375 10.7527 9.375 11.25V13.75H3.125C2.62772 13.75 2.15081 13.5525 1.79918 13.2008C1.44754 12.8492 1.25 12.3723 1.25 11.875V3.125C1.25 2.62772 1.44754 2.15081 1.79918 1.79918C2.15081 1.44754 2.62772 1.25 3.125 1.25H8.77625C8.94201 1.25 9.10098 1.18415 9.21819 1.06694C9.3354 0.949732 9.40125 0.79076 9.40125 0.625C9.40125 0.45924 9.3354 0.300269 9.21819 0.183058C9.10098 0.065848 8.94201 0 8.77625 0L3.125 0C2.2965 0.000992411 1.50222 0.330551 0.916387 0.916387C0.330551 1.50222 0.000992411 2.2965 0 3.125L0 11.875C0.000992411 12.7035 0.330551 13.4978 0.916387 14.0836C1.50222 14.6695 2.2965 14.999 3.125 15H10.2144C10.6249 15.0012 11.0317 14.9209 11.411 14.7638C11.7904 14.6068 12.1348 14.3761 12.4244 14.085L14.0844 12.4238C14.3755 12.1343 14.6063 11.79 14.7634 11.4108C14.9206 11.0315 15.001 10.6249 15 10.2144V6.23688C15 6.07112 14.9342 5.91214 14.8169 5.79493C14.6997 5.67772 14.5408 5.61188 14.375 5.61188ZM11.5406 13.2013C11.2894 13.4519 10.9717 13.6254 10.625 13.7013V11.25C10.625 11.0842 10.6908 10.9253 10.8081 10.8081C10.9253 10.6908 11.0842 10.625 11.25 10.625H13.7031C13.6258 10.9709 13.4525 11.2881 13.2031 11.54L11.5406 13.2013Z" fill="#5F5B5B"/>
</g>
<defs>
<clipPath id="clip0_392_463">
<rect width="15" height="15" fill="white"/>
</clipPath>
</defs>
</svg>
