<svg width="18" height="18" viewBox="0 0 30 30" fill="none" xmlns="http://www.w3.org/2000/svg">
<g clip-path="url(#clip0_83_47)">
<path d="M28.5363 11.465L23.6876 6.61624C23.4518 6.38854 23.1361 6.26255 22.8083 6.2654C22.4806 6.26825 22.1671 6.39971 21.9353 6.63147C21.7035 6.86323 21.5721 7.17674 21.5692 7.50449C21.5664 7.83223 21.6924 8.14799 21.9201 8.38374L26.7688 13.2325C26.9129 13.3794 27.0388 13.5431 27.1438 13.72C27.1251 13.72 27.1101 13.71 27.0913 13.71L7.48633 13.75C7.15481 13.75 6.83687 13.8817 6.60244 14.1161C6.36802 14.3505 6.23633 14.6685 6.23633 15C6.23633 15.3315 6.36802 15.6495 6.60244 15.8839C6.83687 16.1183 7.15481 16.25 7.48633 16.25L27.0838 16.21C27.1188 16.21 27.1476 16.1925 27.1813 16.19C27.0705 16.4014 26.9299 16.5959 26.7638 16.7675L21.9151 21.6162C21.7957 21.7315 21.7005 21.8695 21.635 22.022C21.5694 22.1745 21.535 22.3385 21.5335 22.5045C21.5321 22.6705 21.5637 22.8351 21.6266 22.9887C21.6894 23.1423 21.7822 23.2819 21.8996 23.3992C22.017 23.5166 22.1565 23.6094 22.3101 23.6723C22.4638 23.7351 22.6284 23.7667 22.7943 23.7653C22.9603 23.7639 23.1243 23.7294 23.2768 23.6639C23.4293 23.5984 23.5673 23.5031 23.6826 23.3837L28.5313 18.535C29.4687 17.5974 29.9953 16.3258 29.9953 15C29.9953 13.6742 29.4687 12.4026 28.5313 11.465H28.5363Z" fill="#5E5F7D"/>
<path d="M8.75 27.5H6.25C5.25544 27.5 4.30161 27.1049 3.59835 26.4017C2.89509 25.6984 2.5 24.7446 2.5 23.75V6.25C2.5 5.25544 2.89509 4.30161 3.59835 3.59835C4.30161 2.89509 5.25544 2.5 6.25 2.5H8.75C9.08152 2.5 9.39946 2.3683 9.63388 2.13388C9.8683 1.89946 10 1.58152 10 1.25C10 0.918479 9.8683 0.600537 9.63388 0.366117C9.39946 0.131696 9.08152 0 8.75 0L6.25 0C4.59301 0.00198482 3.00445 0.661102 1.83277 1.83277C0.661102 3.00445 0.00198482 4.59301 0 6.25L0 23.75C0.00198482 25.407 0.661102 26.9956 1.83277 28.1672C3.00445 29.3389 4.59301 29.998 6.25 30H8.75C9.08152 30 9.39946 29.8683 9.63388 29.6339C9.8683 29.3995 10 29.0815 10 28.75C10 28.4185 9.8683 28.1005 9.63388 27.8661C9.39946 27.6317 9.08152 27.5 8.75 27.5Z" fill="#5E5F7D"/>
</g>
<defs>
<clipPath id="clip0_83_47">
<rect width="30" height="30" fill="white"/>
</clipPath>
</defs>
</svg>
