<svg width="20" height="20" viewBox="0 0 20 20" fill="none" xmlns="http://www.w3.org/2000/svg">
<path d="M16.375 6.125H8.875C8.8125 6.0625 8.625 5.875 8.5 5.75C8.0625 5.1875 7.375 4.4375 6.5625 4.4375H2.3125C1.0625 4.4375 0 5.5 0 6.75V15.75C0 16.6875 0.8125 17.5 1.75 17.5H16.375C17.3125 17.5 18.125 16.6875 18.125 15.75V7.875C18.125 6.9375 17.3125 6.125 16.375 6.125ZM16.875 15.75C16.875 16 16.625 16.25 16.375 16.25H1.75C1.5 16.25 1.25 16 1.25 15.75V6.75C1.25 6.1875 1.75 5.6875 2.3125 5.6875H6.5625C6.875 5.6875 7.3125 6.1875 7.5625 6.5625C7.9375 7 8.3125 7.375 8.75 7.375H16.375C16.625 7.375 16.875 7.625 16.875 7.875V15.75Z" fill="#5F5B5B"/>
<path d="M18.2502 3.625H10.7502C10.6877 3.5625 10.5002 3.375 10.3752 3.25C9.93771 2.6875 9.25021 1.9375 8.43771 1.9375H4.18771C3.37521 1.9375 2.62521 2.375 2.18771 3.0625C2.00021 3.375 2.12521 3.75 2.43771 3.9375C2.68771 4.125 3.12521 4 3.25021 3.75C3.43771 3.4375 3.81271 3.1875 4.18771 3.1875H8.43771C8.75021 3.1875 9.18771 3.6875 9.43771 4.0625C9.81271 4.5 10.1877 4.875 10.6252 4.875H18.2502C18.5002 4.875 18.7502 5.125 18.7502 5.375V13.25C18.7502 13.375 18.6877 13.4375 18.6252 13.5625C18.4377 13.8125 18.5002 14.25 18.7502 14.4375C18.8752 14.5 19.0002 14.5625 19.1252 14.5625C19.3127 14.5625 19.5002 14.5 19.6252 14.3125C19.8752 14 19.9377 13.625 19.9377 13.25V5.375C20.0002 4.4375 19.1877 3.625 18.2502 3.625Z" fill="#5F5B5B"/>
</svg>
