<svg width="15" height="15" viewBox="0 0 15 15" fill="none" xmlns="http://www.w3.org/2000/svg">
<g clip-path="url(#clip0_24_764)">
<path d="M14.4506 5.66795L9.71001 0.9267C9.12329 0.341693 8.32855 0.0131836 7.50001 0.0131836C6.67147 0.0131836 5.87673 0.341693 5.29001 0.9267L0.549383 5.66795C0.374648 5.84157 0.236114 6.04814 0.141809 6.27569C0.0475045 6.50324 -0.000694 6.74725 7.54968e-06 6.99357V13.1292C7.54968e-06 13.6265 0.197552 14.1034 0.549182 14.455C0.900813 14.8067 1.37773 15.0042 1.87501 15.0042H13.125C13.6223 15.0042 14.0992 14.8067 14.4508 14.455C14.8025 14.1034 15 13.6265 15 13.1292V6.99357C15.0007 6.74725 14.9525 6.50324 14.8582 6.27569C14.7639 6.04814 14.6254 5.84157 14.4506 5.66795ZM9.37501 13.7542H5.62501V11.2955C5.62501 10.7982 5.82255 10.3213 6.17418 9.96962C6.52581 9.61799 7.00273 9.42045 7.50001 9.42045C7.99729 9.42045 8.4742 9.61799 8.82583 9.96962C9.17746 10.3213 9.37501 10.7982 9.37501 11.2955V13.7542ZM13.75 13.1292C13.75 13.295 13.6842 13.4539 13.5669 13.5711C13.4497 13.6884 13.2908 13.7542 13.125 13.7542H10.625V11.2955C10.625 10.4666 10.2958 9.67179 9.70972 9.08574C9.12366 8.49969 8.32881 8.17045 7.50001 8.17045C6.67121 8.17045 5.87635 8.49969 5.2903 9.08574C4.70425 9.67179 4.37501 10.4666 4.37501 11.2955V13.7542H1.87501C1.70925 13.7542 1.55028 13.6884 1.43307 13.5711C1.31586 13.4539 1.25001 13.295 1.25001 13.1292V6.99357C1.25059 6.82794 1.31638 6.66919 1.43313 6.5517L6.17376 1.81232C6.52607 1.46166 7.00292 1.26479 7.50001 1.26479C7.99709 1.26479 8.47395 1.46166 8.82626 1.81232L13.5669 6.55358C13.6832 6.6706 13.7489 6.82859 13.75 6.99357V13.1292Z" fill="black"/>
</g>
<defs>
<clipPath id="clip0_24_764">
<rect width="15" height="15" fill="white"/>
</clipPath>
</defs>
</svg>
