<svg width="15" height="15" viewBox="0 0 15 15" fill="none" xmlns="http://www.w3.org/2000/svg">
<g clip-path="url(#clip0_388_408)">
<path d="M7.5 2.5C8.19036 2.5 8.75 1.94036 8.75 1.25C8.75 0.559644 8.19036 0 7.5 0C6.80964 0 6.25 0.559644 6.25 1.25C6.25 1.94036 6.80964 2.5 7.5 2.5Z" fill="#000B70"/>
<path d="M7.5 8.75C8.19036 8.75 8.75 8.19036 8.75 7.5C8.75 6.80964 8.19036 6.25 7.5 6.25C6.80964 6.25 6.25 6.80964 6.25 7.5C6.25 8.19036 6.80964 8.75 7.5 8.75Z" fill="#000B70"/>
<path d="M7.5 15C8.19036 15 8.75 14.4404 8.75 13.75C8.75 13.0596 8.19036 12.5 7.5 12.5C6.80964 12.5 6.25 13.0596 6.25 13.75C6.25 14.4404 6.80964 15 7.5 15Z" fill="#000B70"/>
</g>
<defs>
<clipPath id="clip0_388_408">
<rect width="15" height="15" fill="white"/>
</clipPath>
</defs>
</svg>
