<svg width="15" height="15" viewBox="0 0 15 15" fill="none" xmlns="http://www.w3.org/2000/svg">
<g clip-path="url(#clip0_392_479)">
<path d="M14.8174 13.9331L11.0867 10.2025C12.1034 8.95912 12.6032 7.37256 12.4829 5.77098C12.3625 4.16939 11.6312 2.67533 10.4402 1.59782C9.2492 0.520318 7.68959 -0.0581932 6.084 -0.0180483C4.47841 0.0220966 2.94966 0.677826 1.81398 1.81351C0.678301 2.94919 0.0225715 4.47793 -0.0175734 6.08352C-0.0577183 7.68912 0.520793 9.24872 1.5983 10.4397C2.67581 11.6308 4.16987 12.3621 5.77145 12.4824C7.37303 12.6027 8.9596 12.1029 10.203 11.0863L13.9336 14.8169C14.0515 14.9307 14.2094 14.9937 14.3732 14.9923C14.5371 14.9909 14.6939 14.9251 14.8097 14.8093C14.9256 14.6934 14.9913 14.5366 14.9928 14.3728C14.9942 14.2089 14.9312 14.051 14.8174 13.9331ZM6.25047 11.25C5.26157 11.25 4.29487 10.9568 3.47262 10.4073C2.65038 9.85794 2.00951 9.07705 1.63108 8.16342C1.25264 7.24979 1.15362 6.24445 1.34655 5.27455C1.53947 4.30464 2.01568 3.41373 2.71494 2.71447C3.4142 2.0152 4.30512 1.539 5.27502 1.34607C6.24493 1.15315 7.25026 1.25216 8.16389 1.6306C9.07752 2.00904 9.85841 2.6499 10.4078 3.47215C10.9572 4.29439 11.2505 5.26109 11.2505 6.25C11.249 7.57562 10.7217 8.84653 9.78436 9.78389C8.847 10.7212 7.5761 11.2485 6.25047 11.25Z" fill="#5F5B5B"/>
</g>
<defs>
<clipPath id="clip0_392_479">
<rect width="15" height="15" fill="white"/>
</clipPath>
</defs>
</svg>
