<svg width="15" height="15" viewBox="0 0 15 15" fill="none" xmlns="http://www.w3.org/2000/svg">
<g clip-path="url(#clip0_24_766)">
<path d="M7.5 5C7.00555 5 6.5222 5.14662 6.11108 5.42133C5.69995 5.69603 5.37952 6.08648 5.1903 6.54329C5.00108 7.00011 4.95157 7.50277 5.04804 7.98773C5.1445 8.47268 5.3826 8.91814 5.73223 9.26777C6.08187 9.6174 6.52732 9.8555 7.01228 9.95196C7.49723 10.0484 7.9999 9.99892 8.45671 9.8097C8.91353 9.62048 9.30397 9.30005 9.57868 8.88893C9.85338 8.4778 10 7.99445 10 7.5C10 6.83696 9.73661 6.20107 9.26777 5.73223C8.79893 5.26339 8.16304 5 7.5 5ZM7.5 8.75C7.25277 8.75 7.0111 8.67669 6.80554 8.53934C6.59998 8.40199 6.43976 8.20676 6.34515 7.97835C6.25054 7.74995 6.22579 7.49861 6.27402 7.25614C6.32225 7.01366 6.4413 6.79093 6.61612 6.61612C6.79093 6.4413 7.01366 6.32225 7.25614 6.27402C7.49862 6.22579 7.74995 6.25054 7.97836 6.34515C8.20676 6.43976 8.40199 6.59998 8.53934 6.80554C8.67669 7.0111 8.75 7.25277 8.75 7.5C8.75 7.83152 8.61831 8.14946 8.38389 8.38388C8.14946 8.6183 7.83152 8.75 7.5 8.75Z" fill="black"/>
<path d="M13.3086 8.6875L13.0311 8.5275C13.1561 7.84778 13.1561 7.15097 13.0311 6.47125L13.3086 6.31125C13.522 6.18814 13.7091 6.02419 13.8591 5.82879C14.0092 5.63338 14.1192 5.41034 14.1831 5.17239C14.2469 4.93444 14.2633 4.68624 14.2312 4.44197C14.1991 4.19771 14.1192 3.96215 13.9961 3.74875C13.873 3.53535 13.7091 3.34829 13.5137 3.19825C13.3183 3.04821 13.0952 2.93813 12.8573 2.87429C12.6193 2.81045 12.3711 2.7941 12.1269 2.82618C11.8826 2.85826 11.647 2.93814 11.4336 3.06125L11.1555 3.22188C10.6302 2.77307 10.0265 2.42515 9.37488 2.19563V1.875C9.37488 1.37772 9.17733 0.900805 8.8257 0.549175C8.47407 0.197544 7.99716 0 7.49988 0C7.00259 0 6.52568 0.197544 6.17405 0.549175C5.82242 0.900805 5.62487 1.37772 5.62487 1.875V2.19563C4.97324 2.42598 4.36978 2.77475 3.84487 3.22438L3.5655 3.0625C3.13452 2.81386 2.62243 2.74661 2.14186 2.87554C1.6613 3.00447 1.25164 3.31902 1.003 3.75C0.754359 4.18098 0.687107 4.69307 0.816038 5.17364C0.944969 5.6542 1.25952 6.06386 1.6905 6.3125L1.968 6.4725C1.84307 7.15222 1.84307 7.84903 1.968 8.52875L1.6905 8.68875C1.25952 8.93739 0.944969 9.34705 0.816038 9.82761C0.687107 10.3082 0.754359 10.8203 1.003 11.2513C1.25164 11.6822 1.6613 11.9968 2.14186 12.1257C2.62243 12.2546 3.13452 12.1874 3.5655 11.9387L3.84362 11.7781C4.3691 12.227 4.97299 12.5749 5.62487 12.8044V13.125C5.62487 13.6223 5.82242 14.0992 6.17405 14.4508C6.52568 14.8025 7.00259 15 7.49988 15C7.99716 15 8.47407 14.8025 8.8257 14.4508C9.17733 14.0992 9.37488 13.6223 9.37488 13.125V12.8044C10.0265 12.574 10.63 12.2253 11.1549 11.7756L11.4343 11.9369C11.8652 12.1855 12.3773 12.2528 12.8579 12.1238C13.3384 11.9949 13.7481 11.6804 13.9968 11.2494C14.2454 10.8184 14.3126 10.3063 14.1837 9.82574C14.0548 9.34518 13.7402 8.93552 13.3093 8.68688L13.3086 8.6875ZM11.7161 6.3275C11.9278 7.09441 11.9278 7.90433 11.7161 8.67125C11.6792 8.80473 11.6876 8.94671 11.7401 9.07488C11.7926 9.20305 11.8862 9.31016 12.0061 9.37938L12.6836 9.77063C12.8273 9.85351 12.9321 9.99005 12.975 10.1502C13.018 10.3104 12.9956 10.4811 12.9127 10.6247C12.8298 10.7683 12.6933 10.8731 12.5331 10.9161C12.3729 10.9591 12.2023 10.9366 12.0586 10.8537L11.3799 10.4613C11.2598 10.3917 11.12 10.3641 10.9825 10.3828C10.845 10.4014 10.7177 10.4653 10.6205 10.5644C10.0642 11.1323 9.36336 11.5375 8.59363 11.7362C8.45927 11.7708 8.34023 11.8491 8.25525 11.9587C8.17027 12.0683 8.12418 12.2032 8.12425 12.3419V13.125C8.12425 13.2908 8.0584 13.4497 7.94119 13.5669C7.82398 13.6842 7.66501 13.75 7.49925 13.75C7.33349 13.75 7.17452 13.6842 7.05731 13.5669C6.9401 13.4497 6.87425 13.2908 6.87425 13.125V12.3425C6.87432 12.2038 6.82823 12.069 6.74325 11.9593C6.65827 11.8497 6.53923 11.7714 6.40487 11.7369C5.63509 11.5373 4.93446 11.1312 4.37862 10.5625C4.28145 10.4635 4.15409 10.3996 4.0166 10.3809C3.87911 10.3622 3.73932 10.3898 3.61925 10.4594L2.94175 10.8512C2.87064 10.8929 2.79199 10.9201 2.71033 10.9313C2.62866 10.9425 2.5456 10.9374 2.46591 10.9163C2.38622 10.8952 2.31149 10.8586 2.24601 10.8086C2.18054 10.7585 2.12561 10.696 2.0844 10.6246C2.04318 10.5532 2.0165 10.4744 2.00587 10.3926C1.99525 10.3109 2.0009 10.2279 2.02249 10.1483C2.04409 10.0688 2.08121 9.99428 2.13171 9.92914C2.18221 9.864 2.2451 9.80949 2.31675 9.76875L2.99425 9.3775C3.11422 9.30828 3.2078 9.20118 3.26029 9.07301C3.31278 8.94483 3.32121 8.80286 3.28425 8.66938C3.0726 7.90246 3.0726 7.09254 3.28425 6.32563C3.32054 6.19243 3.31171 6.05096 3.25913 5.92331C3.20656 5.79566 3.1132 5.689 2.99362 5.62L2.31612 5.22875C2.17249 5.14587 2.06767 5.00933 2.02471 4.84916C1.98175 4.68899 2.00418 4.51832 2.08706 4.37469C2.16994 4.23106 2.30648 4.12623 2.46665 4.08327C2.62682 4.04032 2.79749 4.06274 2.94112 4.14563L3.61987 4.53813C3.73961 4.60782 3.87911 4.63576 4.01645 4.61754C4.1538 4.59933 4.28119 4.536 4.37862 4.4375C4.93493 3.86959 5.63577 3.46439 6.4055 3.26562C6.54027 3.23098 6.65962 3.15234 6.74465 3.04219C6.82967 2.93203 6.8755 2.79665 6.87487 2.6575V1.875C6.87487 1.70924 6.94072 1.55027 7.05793 1.43306C7.17514 1.31585 7.33411 1.25 7.49988 1.25C7.66564 1.25 7.82461 1.31585 7.94182 1.43306C8.05903 1.55027 8.12488 1.70924 8.12488 1.875V2.6575C8.12481 2.79622 8.17089 2.93103 8.25587 3.04068C8.34085 3.15032 8.4599 3.22858 8.59425 3.26313C9.36426 3.4626 10.0651 3.86868 10.6211 4.4375C10.7183 4.53654 10.8457 4.60043 10.9832 4.6191C11.1206 4.63778 11.2604 4.61017 11.3805 4.54063L12.058 4.14875C12.1291 4.10706 12.2078 4.07985 12.2894 4.06869C12.3711 4.05752 12.4542 4.06262 12.5338 4.08369C12.6135 4.10476 12.6883 4.14138 12.7537 4.19145C12.8192 4.24151 12.8741 4.30404 12.9154 4.37542C12.9566 4.4468 12.9833 4.52563 12.9939 4.60737C13.0045 4.68911 12.9989 4.77214 12.9773 4.85168C12.9557 4.93123 12.9185 5.00572 12.868 5.07086C12.8175 5.136 12.7547 5.19051 12.683 5.23125L12.0055 5.6225C11.8862 5.69169 11.7931 5.79842 11.7407 5.92606C11.6884 6.05369 11.6797 6.19506 11.7161 6.32812V6.3275Z" fill="black"/>
</g>
<defs>
<clipPath id="clip0_24_766">
<rect width="15" height="15" fill="white"/>
</clipPath>
</defs>
</svg>
