<svg width="16" height="20" viewBox="0 0 16 20" fill="none" xmlns="http://www.w3.org/2000/svg">
<path d="M11.7922 9.99917C13.8938 8.11833 15.128 6.03333 15.463 3.79167C15.6038 2.84917 15.3255 1.89083 14.6988 1.16333C14.0613 0.424167 13.1372 0 12.163 0H3.83716C2.863 0 1.938 0.425 1.30133 1.16417C0.673829 1.89333 0.395495 2.8525 0.537162 3.79583C0.874662 6.045 2.10716 8.1275 4.20466 9.99917C2.10716 11.8708 0.874662 13.9542 0.537162 16.2025C0.395495 17.1458 0.674662 18.1058 1.30133 18.8342C1.93883 19.5742 2.863 19.9983 3.83716 19.9983H12.1622C13.1363 19.9983 14.0605 19.5742 14.698 18.835C15.3255 18.1067 15.6038 17.1492 15.463 16.2058C15.128 13.9642 13.8938 11.8808 11.7922 9.99917ZM13.4355 17.7475C13.1155 18.1192 12.6513 18.3325 12.1622 18.3325H3.83716C3.348 18.3325 2.88383 18.1192 2.56383 17.7467C2.24883 17.3808 2.11383 16.92 2.18383 16.45C2.49633 14.3675 3.78633 12.4175 6.01633 10.6525C6.21633 10.495 6.33216 10.2533 6.33216 9.99917C6.33216 9.745 6.2155 9.50333 6.01633 9.34583C3.78633 7.58083 2.49633 5.63083 2.18383 3.54833C2.11383 3.07833 2.248 2.6175 2.56383 2.25167C2.88383 1.88 3.348 1.66667 3.83716 1.66667H12.1622C12.6513 1.66667 13.1155 1.87917 13.4355 2.25167C13.7497 2.61667 13.8847 3.07667 13.8147 3.54583C13.5038 5.61917 12.2147 7.57167 9.9805 9.3475C9.78216 9.50583 9.66633 9.74583 9.66633 10C9.66633 10.2542 9.78216 10.4942 9.9805 10.6525C12.2147 12.4292 13.5047 14.3808 13.8147 16.4542C13.8847 16.9233 13.7497 17.3833 13.4347 17.7483L13.4355 17.7475ZM11.8388 4.47917C11.943 4.22167 11.9122 3.93 11.7572 3.7C11.6022 3.47083 11.343 3.3325 11.0663 3.3325H4.9305C4.653 3.3325 4.39466 3.47083 4.23966 3.70083C4.08466 3.93 4.05383 4.22167 4.158 4.47833C4.78133 6.0225 6.07466 7.26667 7.0505 8.03833L7.483 8.38083C7.63466 8.50167 7.81716 8.56083 8.0005 8.56083C8.18383 8.56083 8.36799 8.5 8.51966 8.37917L8.943 8.04167C9.9205 7.26417 11.2163 6.01583 11.8388 4.47917ZM7.99883 6.66333C7.47299 6.23917 6.85633 5.66917 6.3605 5H9.63383C9.13966 5.665 8.52466 6.23667 7.99883 6.66333Z" fill="#5F5B5B"/>
</svg>
