<svg width="15" height="14" viewBox="0 0 15 14" fill="none" xmlns="http://www.w3.org/2000/svg">
<path d="M2.49951 3.75C2.25311 3.75065 2.00902 3.70242 1.78137 3.60813C1.55372 3.51383 1.34704 3.37532 1.17326 3.20062L0.208263 2.34187C0.0844403 2.23148 0.0095436 2.07642 4.95748e-05 1.9108C-0.00944445 1.74518 0.0472419 1.58257 0.157638 1.45875C0.268035 1.33493 0.423098 1.26003 0.588716 1.25054C0.754334 1.24104 0.91694 1.29773 1.04076 1.40812L2.03139 2.29187C2.0881 2.35556 2.15724 2.40697 2.23456 2.44293C2.31188 2.47889 2.39574 2.49866 2.48099 2.501C2.56623 2.50334 2.65105 2.48821 2.73023 2.45655C2.80941 2.42488 2.88127 2.37735 2.94139 2.31687L5.19389 0.1725C5.31501 0.0646688 5.4733 0.0081368 5.63533 0.0148443C5.79736 0.0215518 5.95043 0.0909736 6.06223 0.208447C6.17402 0.32592 6.23578 0.482246 6.23446 0.644407C6.23313 0.806568 6.16883 0.961866 6.05514 1.0775L3.81201 3.21125C3.63937 3.38289 3.43459 3.51881 3.20938 3.61125C2.98417 3.7037 2.74295 3.75084 2.49951 3.75ZM14.9995 2.5C14.9995 2.33424 14.9337 2.17527 14.8165 2.05806C14.6992 1.94085 14.5403 1.875 14.3745 1.875H8.12451C7.95875 1.875 7.79978 1.94085 7.68257 2.05806C7.56536 2.17527 7.49951 2.33424 7.49951 2.5C7.49951 2.66576 7.56536 2.82473 7.68257 2.94194C7.79978 3.05915 7.95875 3.125 8.12451 3.125H14.3745C14.5403 3.125 14.6992 3.05915 14.8165 2.94194C14.9337 2.82473 14.9995 2.66576 14.9995 2.5ZM3.81201 8.21125L6.05514 6.0775C6.11775 6.02176 6.1685 5.954 6.20438 5.87825C6.24027 5.80249 6.26055 5.72029 6.26402 5.63654C6.26748 5.55279 6.25407 5.4692 6.22457 5.39074C6.19507 5.31227 6.15009 5.24055 6.0923 5.17983C6.03451 5.11911 5.9651 5.07063 5.8882 5.03728C5.81129 5.00393 5.72847 4.98639 5.64465 4.98571C5.56083 4.98503 5.47773 5.00121 5.40029 5.0333C5.32285 5.06539 5.25266 5.11273 5.19389 5.1725L2.94389 7.31687C2.82491 7.43064 2.66663 7.49414 2.50201 7.49414C2.33739 7.49414 2.17912 7.43064 2.06014 7.31687L1.06639 6.32625C0.948512 6.2124 0.790635 6.1494 0.626763 6.15083C0.462889 6.15225 0.306132 6.21798 0.190252 6.33386C0.0743716 6.44974 0.00864099 6.6065 0.00721698 6.77037C0.00579296 6.93425 0.0687895 7.09212 0.182638 7.21L1.17326 8.20062C1.52306 8.5505 1.99696 8.74795 2.4917 8.74994C2.98644 8.75193 3.46191 8.5583 3.81451 8.21125H3.81201ZM14.9995 7.5C14.9995 7.33424 14.9337 7.17527 14.8165 7.05806C14.6992 6.94085 14.5403 6.875 14.3745 6.875H8.12451C7.95875 6.875 7.79978 6.94085 7.68257 7.05806C7.56536 7.17527 7.49951 7.33424 7.49951 7.5C7.49951 7.66576 7.56536 7.82473 7.68257 7.94194C7.79978 8.05915 7.95875 8.125 8.12451 8.125H14.3745C14.5403 8.125 14.6992 8.05915 14.8165 7.94194C14.9337 7.82473 14.9995 7.66576 14.9995 7.5ZM3.81201 13.2113L6.05264 11.0775C6.11525 11.0218 6.166 10.954 6.20189 10.8782C6.23777 10.8025 6.25805 10.7203 6.26151 10.6365C6.26498 10.5528 6.25157 10.4692 6.22207 10.3907C6.19257 10.3123 6.14759 10.2405 6.0898 10.1798C6.03201 10.1191 5.9626 10.0706 5.8857 10.0373C5.80879 10.0039 5.72597 9.98639 5.64215 9.98571C5.55833 9.98503 5.47522 10.0012 5.39779 10.0333C5.32035 10.0654 5.25016 10.1127 5.19139 10.1725L2.94139 12.3169C2.88127 12.3774 2.80941 12.4249 2.73023 12.4565C2.65105 12.4882 2.56623 12.5033 2.48099 12.501C2.39574 12.4987 2.31188 12.4789 2.23456 12.4429C2.15724 12.407 2.0881 12.3556 2.03139 12.2919L1.04076 11.4081C0.91694 11.2977 0.754334 11.241 0.588716 11.2505C0.423098 11.26 0.268035 11.3349 0.157638 11.4587C0.0472419 11.5826 -0.00944445 11.7452 4.95748e-05 11.9108C0.0095436 12.0764 0.0844403 12.2315 0.208263 12.3419L1.17326 13.2006C1.52306 13.5505 1.99696 13.7479 2.4917 13.7499C2.98644 13.7519 3.46191 13.5583 3.81451 13.2113H3.81201ZM14.9995 12.5C14.9995 12.3342 14.9337 12.1753 14.8165 12.0581C14.6992 11.9408 14.5403 11.875 14.3745 11.875H8.12451C7.95875 11.875 7.79978 11.9408 7.68257 12.0581C7.56536 12.1753 7.49951 12.3342 7.49951 12.5C7.49951 12.6658 7.56536 12.8247 7.68257 12.9419C7.79978 13.0592 7.95875 13.125 8.12451 13.125H14.3745C14.5403 13.125 14.6992 13.0592 14.8165 12.9419C14.9337 12.8247 14.9995 12.6658 14.9995 12.5Z" fill="#5F5B5B"/>
</svg>
