<svg width="20" height="20" viewBox="0 0 20 20" fill="none" xmlns="http://www.w3.org/2000/svg">
<g clip-path="url(#clip0_21_210)">
<path d="M15.8333 0H4.16667C1.86917 0 0 1.86917 0 4.16667V15.8333C0 18.1308 1.86917 20 4.16667 20H13.8717C14.9442 20 15.9525 19.5825 16.7108 18.8242L18.8242 16.7108C19.5717 15.9642 20 14.9283 20 13.8717V4.16667C20 1.86917 18.1308 0 15.8333 0ZM1.66667 15.8333V4.16667C1.66667 2.78833 2.78833 1.66667 4.16667 1.66667H15.8333C17.2117 1.66667 18.3333 2.78833 18.3333 4.16667V12.5H15C13.6217 12.5 12.5 13.6217 12.5 15V18.3333H4.16667C2.78833 18.3333 1.66667 17.2117 1.66667 15.8333ZM15.5325 17.6458C15.1592 18.0192 14.6825 18.25 14.1667 18.3142V15C14.1667 14.54 14.5408 14.1667 15 14.1667H18.3133C18.2475 14.6792 18.0125 15.165 17.645 15.5325L15.5325 17.6458ZM4.16667 5.41667C4.16667 4.72667 4.72667 4.16667 5.41667 4.16667C6.10667 4.16667 6.66667 4.72667 6.66667 5.41667C6.66667 6.10667 6.10667 6.66667 5.41667 6.66667C4.72667 6.66667 4.16667 6.10667 4.16667 5.41667ZM6.66667 10C6.66667 10.69 6.10667 11.25 5.41667 11.25C4.72667 11.25 4.16667 10.69 4.16667 10C4.16667 9.31 4.72667 8.75 5.41667 8.75C6.10667 8.75 6.66667 9.31 6.66667 10ZM6.66667 14.5833C6.66667 15.2733 6.10667 15.8333 5.41667 15.8333C4.72667 15.8333 4.16667 15.2733 4.16667 14.5833C4.16667 13.8933 4.72667 13.3333 5.41667 13.3333C6.10667 13.3333 6.66667 13.8933 6.66667 14.5833Z" fill="#5F5B5B"/>
</g>
<defs>
<clipPath id="clip0_21_210">
<rect width="20" height="20" fill="white"/>
</clipPath>
</defs>
</svg>
