<svg width="15" height="15" viewBox="0 0 15 15" fill="none" xmlns="http://www.w3.org/2000/svg">
<g clip-path="url(#clip0_24_773)">
<path d="M8.125 1.27875V0.625C8.125 0.279375 7.84562 0 7.5 0C7.15438 0 6.875 0.279375 6.875 0.625V1.27875C3.37563 1.59563 0.625 4.545 0.625 8.125C0.625 9.83625 1.25375 11.4038 2.29188 12.6081C1.76313 12.8888 1.25 13.4312 1.25 14.375C1.25 14.7206 1.52938 15 1.875 15C2.22062 15 2.5 14.7206 2.5 14.375C2.5 13.75 3.03625 13.6287 3.19375 13.6069C3.2375 13.6019 3.28 13.5925 3.32 13.5794C4.47937 14.4694 5.92875 15 7.49937 15C9.07 15 10.5212 14.4694 11.6806 13.5781C11.7181 13.5906 11.7575 13.6 11.7981 13.6056C11.9631 13.6281 12.4994 13.7494 12.4994 14.3744C12.4994 14.72 12.7788 14.9994 13.1244 14.9994C13.47 14.9994 13.7494 14.72 13.7494 14.3744C13.7494 13.4306 13.2363 12.8881 12.7075 12.6075C13.7456 11.4031 14.3744 9.83562 14.3744 8.12437C14.3744 4.54437 11.6237 1.595 8.12437 1.27813L8.125 1.27875ZM1.875 8.125C1.875 5.02313 4.39813 2.5 7.5 2.5C10.6019 2.5 13.125 5.02313 13.125 8.125C13.125 11.2269 10.6019 13.75 7.5 13.75C4.39813 13.75 1.875 11.2269 1.875 8.125ZM15 2.8125C15 3.15812 14.7206 3.4375 14.375 3.4375C14.0294 3.4375 13.75 3.15812 13.75 2.8125C13.75 2.055 13.1394 1.25 12.0094 1.25C11.6637 1.25 11.3844 0.970625 11.3844 0.625C11.3844 0.279375 11.6637 0 12.0094 0C13.6869 0 15 1.23563 15 2.8125ZM0.625 3.4375C0.279375 3.4375 0 3.15812 0 2.8125C0 1.23563 1.31375 0 2.99062 0C3.33625 0 3.61562 0.279375 3.61562 0.625C3.61562 0.970625 3.33625 1.25 2.99062 1.25C1.86 1.25 1.25 2.055 1.25 2.8125C1.25 3.15812 0.970625 3.4375 0.625 3.4375ZM8.125 4.375V8.75C8.125 9.09562 7.84562 9.375 7.5 9.375C7.15438 9.375 6.875 9.09562 6.875 8.75V4.375C6.875 4.02938 7.15438 3.75 7.5 3.75C7.84562 3.75 8.125 4.02938 8.125 4.375ZM8.4375 11.5625C8.4375 12.08 8.0175 12.5 7.5 12.5C6.9825 12.5 6.5625 12.08 6.5625 11.5625C6.5625 11.045 6.9825 10.625 7.5 10.625C8.0175 10.625 8.4375 11.045 8.4375 11.5625Z" fill="black"/>
</g>
<defs>
<clipPath id="clip0_24_773">
<rect width="15" height="15" fill="white"/>
</clipPath>
</defs>
</svg>
