<svg width="20" height="20" viewBox="0 0 20 20" fill="none" xmlns="http://www.w3.org/2000/svg">
<g clip-path="url(#clip0_21_204)">
<path d="M19.1251 8C18.9689 7.84377 18.7569 7.75601 18.536 7.75601C18.315 7.75601 18.1031 7.84377 17.9468 8L8.87014 17.1158C8.48323 17.5028 8.0239 17.8098 7.51836 18.0192C7.01282 18.2286 6.47098 18.3365 5.92377 18.3365C4.81863 18.3366 3.75873 17.8976 2.97722 17.1162C2.19572 16.3349 1.75663 15.275 1.75655 14.1699C1.75648 13.0647 2.19541 12.0048 2.97681 11.2233L11.7676 2.39666C12.2377 1.93407 12.8715 1.67597 13.531 1.67858C14.1906 1.68119 14.8223 1.94429 15.2887 2.41058C15.7551 2.87688 16.0184 3.50858 16.0211 4.16809C16.0239 4.8276 15.766 5.46148 15.3035 5.93166L6.51264 14.7583C6.3541 14.9102 6.14303 14.995 5.92347 14.995C5.70392 14.995 5.49285 14.9102 5.33431 14.7583C5.17808 14.6021 5.09032 14.3901 5.09032 14.1692C5.09032 13.9482 5.17808 13.7363 5.33431 13.58L13.161 5.7175C13.3128 5.56033 13.3968 5.34983 13.3949 5.13133C13.393 4.91283 13.3053 4.70382 13.1508 4.54931C12.9963 4.39481 12.7873 4.30717 12.5688 4.30527C12.3503 4.30337 12.1398 4.38737 11.9826 4.53916L4.15597 12.4017C3.92378 12.6338 3.7396 12.9094 3.61393 13.2128C3.48827 13.5161 3.42359 13.8412 3.42359 14.1696C3.42359 14.4979 3.48827 14.823 3.61393 15.1264C3.7396 15.4297 3.92378 15.7053 4.15597 15.9375C4.63232 16.3921 5.26546 16.6457 5.92389 16.6457C6.58232 16.6457 7.21546 16.3921 7.69181 15.9375L16.4818 7.11C17.2468 6.32525 17.6718 5.27071 17.6648 4.17481C17.6578 3.07891 17.2193 2.0299 16.4443 1.25502C15.6693 0.480136 14.6202 0.0417843 13.5243 0.0349177C12.4284 0.0280511 11.3739 0.453223 10.5893 1.21833L1.79847 10.045C0.704457 11.139 0.0898437 12.6228 0.0898438 14.17C0.0898438 15.7172 0.704457 17.201 1.79847 18.295C2.89249 19.389 4.3763 20.0036 5.92347 20.0036C7.47065 20.0036 8.95446 19.389 10.0485 18.295L19.1251 9.18166C19.203 9.10422 19.2648 9.01216 19.3069 8.91076C19.3491 8.80937 19.3708 8.70064 19.3708 8.59083C19.3708 8.48102 19.3491 8.37229 19.3069 8.2709C19.2648 8.1695 19.203 8.07744 19.1251 8Z" fill="#5F5B5B"/>
</g>
<defs>
<clipPath id="clip0_21_204">
<rect width="20" height="20" fill="white"/>
</clipPath>
</defs>
</svg>
