<svg width="16" height="20" viewBox="0 0 16 20" fill="none" xmlns="http://www.w3.org/2000/svg">
<path d="M12.1668 20H3.83765C3.35574 19.9997 2.87959 19.8954 2.44177 19.694C2.00395 19.4926 1.61481 19.199 1.30098 18.8333C0.991575 18.4756 0.763108 18.0552 0.631216 17.601C0.499325 17.1468 0.467124 16.6695 0.536815 16.2017C0.984242 13.7646 2.28429 11.5662 4.20432 10C2.28426 8.43322 0.984487 6.23424 0.537649 3.79667C0.468093 3.32918 0.500286 2.85219 0.632027 2.39828C0.763768 1.94438 0.991951 1.52427 1.30098 1.16667C1.61481 0.800955 2.00395 0.50737 2.44177 0.306008C2.87959 0.104646 3.35574 0.000261535 3.83765 0L12.1668 0C12.6487 0.000426786 13.1248 0.104885 13.5626 0.306236C14.0004 0.507587 14.3895 0.801083 14.7035 1.16667C15.0126 1.52412 15.2409 1.94404 15.3729 2.39777C15.5049 2.85149 15.5375 3.32836 15.4685 3.79583C15.0171 6.23412 13.7144 8.43285 11.7926 10C13.7133 11.5685 15.0145 13.7681 15.4643 16.2067C15.5334 16.6743 15.5009 17.1513 15.3688 17.6052C15.2368 18.059 15.0084 18.4791 14.6993 18.8367C14.3855 19.2011 13.9969 19.4937 13.5599 19.6944C13.1229 19.8952 12.6477 19.9994 12.1668 20ZM12.1668 1.66667H3.83765C3.59593 1.66652 3.35702 1.71856 3.13726 1.81924C2.9175 1.91991 2.72207 2.06685 2.56432 2.25C2.41028 2.42536 2.29645 2.63229 2.2308 2.85628C2.16516 3.08027 2.1493 3.3159 2.18432 3.54667C2.49765 5.63 3.78765 7.58 6.01765 9.34417C6.11618 9.42219 6.1958 9.52148 6.25052 9.63462C6.30525 9.74776 6.33368 9.87182 6.33368 9.9975C6.33368 10.1232 6.30525 10.2472 6.25052 10.3604C6.1958 10.4735 6.11618 10.5728 6.01765 10.6508C3.78765 12.4167 2.50015 14.3683 2.18432 16.4508C2.14892 16.682 2.16459 16.9181 2.23025 17.1426C2.2959 17.367 2.40993 17.5744 2.56432 17.75C2.72207 17.9332 2.9175 18.0801 3.13726 18.1808C3.35702 18.2814 3.59593 18.3335 3.83765 18.3333H12.1668C12.4085 18.3335 12.6475 18.2815 12.8672 18.1808C13.087 18.0802 13.2824 17.9332 13.4401 17.75C13.5942 17.575 13.708 17.3683 13.7736 17.1446C13.8393 16.9209 13.8551 16.6855 13.8201 16.455C13.5093 14.3825 12.2201 12.4308 9.98682 10.6533C9.88889 10.5753 9.80981 10.4762 9.75546 10.3633C9.70111 10.2505 9.67288 10.1269 9.67288 10.0017C9.67288 9.87644 9.70111 9.75282 9.75546 9.63999C9.80981 9.52717 9.88889 9.42805 9.98682 9.35C12.221 7.5725 13.5101 5.62083 13.8201 3.5475C13.855 3.31629 13.8387 3.08024 13.7723 2.85604C13.7059 2.63184 13.5911 2.42495 13.436 2.25C13.2787 2.06734 13.084 1.92069 12.865 1.82003C12.646 1.71937 12.4078 1.66706 12.1668 1.66667ZM11.0676 16.6667H4.93182C4.79546 16.6666 4.66121 16.6331 4.54083 16.5691C4.42045 16.505 4.31762 16.4124 4.24136 16.2994C4.1651 16.1864 4.11774 16.0564 4.10344 15.9208C4.08913 15.7852 4.10832 15.6481 4.15932 15.5217C4.81188 14.1126 5.80615 12.8889 7.05182 11.9617L7.48348 11.6183C7.63095 11.501 7.81381 11.4372 8.00223 11.4372C8.19066 11.4372 8.37352 11.501 8.52098 11.6183L8.94515 11.9567C10.1891 12.8875 11.1833 14.1117 11.8393 15.52C11.8906 15.6465 11.9101 15.7836 11.896 15.9194C11.8819 16.0551 11.8347 16.1854 11.7585 16.2986C11.6823 16.4118 11.5794 16.5046 11.459 16.5688C11.3385 16.633 11.2041 16.6666 11.0676 16.6667ZM6.36182 15H9.63515C9.15967 14.3803 8.61065 13.8206 8.00015 13.3333C7.38695 13.8187 6.8366 14.3786 6.36182 15Z" fill="#5F5B5B"/>
</svg>
