<svg width="15" height="15" viewBox="0 0 15 15" fill="none" xmlns="http://www.w3.org/2000/svg">
<g clip-path="url(#clip0_24_775)">
<path d="M11.9344 5.96688C11.6087 5.68437 11.3019 5.41813 11.0669 5.18313C10.9444 5.06063 10.7881 4.98875 10.6025 5.00063C10.4294 5.00688 10.2662 5.085 10.1525 5.21625C9.47687 5.99625 9.22937 7.0375 9.03063 7.87437C8.97437 8.11063 8.905 8.405 8.83625 8.6075C8.79 8.48125 8.75125 8.29562 8.74937 8.125C8.74937 7.87063 8.595 7.64125 8.35938 7.54562C8.12438 7.45062 7.85313 7.50688 7.67562 7.68938C6.97 8.41687 6.24937 9.33375 6.24937 10.6244C6.24937 13.0369 8.2125 14.9994 10.6244 14.9994C13.0363 14.9994 14.9994 13.0369 14.9994 10.6244C14.9994 8.6275 13.2275 7.08937 11.9338 5.96625L11.9344 5.96688ZM9.9625 13.4975C9.78562 13.3206 9.68813 13.085 9.68813 12.835C9.68813 12.585 9.78562 12.3494 9.9625 12.1719L10.6256 11.5087L11.2887 12.1719C11.4656 12.3494 11.5631 12.5844 11.5631 12.835C11.5631 13.0856 11.4656 13.3206 11.2887 13.4981C11.1669 13.62 11.0344 13.7506 10.6256 13.7506C10.2169 13.7506 10.0844 13.6194 9.9625 13.4975ZM12.8125 12.8544V12.8344C12.8125 12.25 12.585 11.7006 12.1719 11.2875L11.0669 10.1825C10.8225 9.93812 10.4275 9.93812 10.1831 10.1825L9.07812 11.2875C8.665 11.7006 8.4375 12.25 8.4375 12.8344V12.8544C7.85938 12.2869 7.5 11.4969 7.5 10.625C7.5 10.1812 7.63375 9.79688 7.86375 9.42813C8.09812 9.76937 8.44938 10 8.92625 10C9.81 10 10.0325 9.06625 10.2469 8.16313C10.3706 7.64125 10.5063 7.06938 10.7419 6.58562C10.8619 6.69187 10.9875 6.8 11.115 6.91062C12.2888 7.93 13.75 9.19812 13.75 10.625C13.75 11.4975 13.3906 12.2869 12.8125 12.8544ZM15 3.125V5.625C15 5.97 14.7206 6.25 14.375 6.25C14.0294 6.25 13.75 5.97 13.75 5.625V3.125C13.75 2.09125 12.9087 1.25 11.875 1.25H3.125C2.09125 1.25 1.25 2.09125 1.25 3.125V11.875C1.25 12.9087 2.09125 13.75 3.125 13.75H5.625C5.97062 13.75 6.25 14.03 6.25 14.375C6.25 14.72 5.97062 15 5.625 15H3.125C1.40188 15 0 13.5981 0 11.875V3.125C0 1.40188 1.40188 0 3.125 0H11.875C13.5981 0 15 1.40188 15 3.125ZM3.125 2.5C3.47 2.5 3.75 2.78 3.75 3.125C3.75 3.47 3.47 3.75 3.125 3.75C2.78 3.75 2.5 3.47 2.5 3.125C2.5 2.78 2.78 2.5 3.125 2.5ZM6.25 3.125C6.25 3.47 5.97 3.75 5.625 3.75C5.28 3.75 5 3.47 5 3.125C5 2.78 5.28 2.5 5.625 2.5C5.97 2.5 6.25 2.78 6.25 3.125Z" fill="black"/>
</g>
<defs>
<clipPath id="clip0_24_775">
<rect width="15" height="15" fill="white"/>
</clipPath>
</defs>
</svg>
