<svg width="20" height="20" viewBox="0 0 20 20" fill="none" xmlns="http://www.w3.org/2000/svg">
<g clip-path="url(#clip0_21_202)">
<path d="M19.8635 7.32833C19.693 6.78575 19.3525 6.31242 18.8922 5.97836C18.4319 5.64429 17.8764 5.46722 17.3077 5.47333H13.6668L12.561 2.02667C12.3871 1.48413 12.0454 1.01084 11.5851 0.675053C11.1249 0.339263 10.5699 0.158321 10.0002 0.158321C9.43044 0.158321 8.87543 0.339263 8.41519 0.675053C7.95494 1.01084 7.61323 1.48413 7.43933 2.02667L6.33349 5.47333H2.69266C2.12578 5.47414 1.57365 5.65407 1.11514 5.98742C0.656634 6.32077 0.315195 6.79049 0.139595 7.32949C-0.0360042 7.86849 -0.0367814 8.44919 0.137375 8.98866C0.311531 9.52812 0.651711 9.99876 1.10933 10.3333L4.07266 12.5L2.94599 15.9892C2.76392 16.5303 2.76161 17.1158 2.93942 17.6584C3.11722 18.201 3.46562 18.6716 3.93266 19C4.3917 19.339 4.94799 19.5206 5.51862 19.5177C6.08926 19.5149 6.6437 19.3277 7.09933 18.9842L10.0002 16.8492L12.9018 18.9817C13.36 19.3187 13.9133 19.5018 14.4821 19.5045C15.0509 19.5073 15.606 19.3297 16.0675 18.9971C16.5289 18.6645 16.8731 18.1942 17.0504 17.6537C17.2277 17.1133 17.2291 16.5305 17.0543 15.9892L15.9277 12.5L18.8943 10.3333C19.3572 10.003 19.7013 9.53233 19.8759 8.99112C20.0504 8.44991 20.0461 7.86688 19.8635 7.32833ZM17.911 8.9875L14.4577 11.5117C14.3158 11.6151 14.2103 11.7608 14.1561 11.9278C14.1019 12.0948 14.1019 12.2746 14.156 12.4417L15.4685 16.5C15.5349 16.7058 15.5343 16.9274 15.4669 17.1329C15.3994 17.3384 15.2685 17.5172 15.093 17.6436C14.9175 17.7701 14.7065 17.8376 14.4902 17.8365C14.2739 17.8354 14.0635 17.7657 13.8893 17.6375L10.4935 15.1375C10.3505 15.0324 10.1776 14.9758 10.0002 14.9758C9.82269 14.9758 9.64986 15.0324 9.50683 15.1375L6.11099 17.6375C5.9369 17.7674 5.72594 17.8385 5.50871 17.8405C5.29149 17.8425 5.07928 17.7752 4.90285 17.6485C4.72643 17.5217 4.59495 17.3421 4.52749 17.1356C4.46003 16.9291 4.46009 16.7065 4.52766 16.5L5.84433 12.4417C5.89842 12.2746 5.89838 12.0948 5.84421 11.9278C5.79004 11.7608 5.6845 11.6151 5.54266 11.5117L2.08933 8.9875C1.91541 8.86016 1.78619 8.68112 1.72011 8.47595C1.65403 8.27078 1.65448 8.04998 1.7214 7.84508C1.78831 7.64018 1.91826 7.46167 2.0927 7.33504C2.26713 7.20842 2.47711 7.14015 2.69266 7.14H6.94266C7.11909 7.13999 7.29097 7.08399 7.43353 6.98006C7.5761 6.87613 7.68201 6.72963 7.73599 6.56167L9.02766 2.53583C9.09396 2.32982 9.22392 2.15016 9.39883 2.02271C9.57374 1.89525 9.78458 1.82659 10.001 1.82659C10.2174 1.82659 10.4282 1.89525 10.6032 2.02271C10.7781 2.15016 10.908 2.32982 10.9743 2.53583L12.266 6.56167C12.32 6.72963 12.4259 6.87613 12.5685 6.98006C12.711 7.08399 12.8829 7.13999 13.0593 7.14H17.3093C17.5249 7.14015 17.7349 7.20842 17.9093 7.33504C18.0837 7.46167 18.2137 7.64018 18.2806 7.84508C18.3475 8.04998 18.348 8.27078 18.2819 8.47595C18.2158 8.68112 18.0866 8.86016 17.9127 8.9875H17.911Z" fill="#5F5B5B"/>
</g>
<defs>
<clipPath id="clip0_21_202">
<rect width="20" height="20" fill="white"/>
</clipPath>
</defs>
</svg>
